<mxfile host="app.diagrams.net" modified="2024-01-13T13:49:04.294Z" agent="Mozilla/5.0 (Windows NT 10.0; Win64; x64) AppleWebKit/537.36 (KHTML, like Gecko) Chrome/120.0.0.0 Safari/537.36" version="22.1.18" etag="uBgMLrZQG7zhaXOsmHsj" type="github">
  <diagram name="페이지-1" id="KE7T96w4UeTpKVoVths_">
    <mxGraphModel>
      <root>
        <mxCell id="0" />
        <mxCell id="1" parent="0" />
      </root>
    </mxGraphModel>
  </diagram>
</mxfile>
